<?xml version="1.0" encoding="utf-8"?>
<!-- Generator: Adobe Illustrator 28.4.1, SVG Export Plug-In . SVG Version: 6.00 Build 0)  -->
<svg version="1.1" id="Layer_1" xmlns="http://www.w3.org/2000/svg" xmlns:xlink="http://www.w3.org/1999/xlink" x="0px" y="0px"
	 viewBox="0 0 2400 947" style="enable-background:new 0 0 2400 947;" xml:space="preserve">
<style type="text/css">
	.st0{fill:#EC0000;}
	.st1{fill-rule:evenodd;clip-rule:evenodd;fill:#EC0000;}
</style>
<g id="Vector">
	<path class="st0" d="M458.7,160.8c0.7,0,0-11.2,0.7,299.3H0V316.3h228.4v-12.5H0V0h459.4v149H229v11.8H458.7z"/>
	<path class="st0" d="M722,0c24.3,0,200.8,0,223.1,0c0,22.3,0,418,0,458.7h-59.1l-1.3,0.7c0,0.7,5.9,0-338,0c0,0,0,0.7-1.3-0.7
		h-59.1c0-619.5,0-400.3,0-458.7c22.3,0,198.8,0,223.1,0v229.7H722V0z"/>
	<path class="st0" d="M972.2,0c33.5,0,440.4,0,459.4,0c0,171.9,0,189,0,361.6h-229.7c0,27.6,0,68.3,0,97.8H972.2
		C972.2,302.5,972.2,91.9,972.2,0z"/>
	<path class="st0" d="M1454.8,460V0h458.7v149h-229.7v11.8h229.7v144.4h-229.7v12.5h229.7V460H1454.8z"/>
	<path class="st0" d="M1940.6,0c33.5,0,440.4,0,459.4,0c0,171.9,0,133.2,0,305.2h-229.7c0,28.2,0,124.7,0,154.2h-229.7
		C1940.6,302.5,1940.6,91.9,1940.6,0z M2182.8,458.7V319.6H2400v139.1H2182.8z"/>
	<path class="st0" d="M1690.6,485.6c24.3,0,200.8,0,223.1,0c0,22.3,0,418,0,458.7h-59.1l-1.3,0.7c0,0.7,5.9,0-338,0
		c0,0,0,0.7-1.3-0.7h-59.1c0-619.5,0-400.3,0-458.7c22.3,0,198.9,0,223.1,0v229.7h12.5V485.6z"/>
	<path class="st0" d="M1940.7,945.7v-460h458.7v149h-229.7v11.8h229.7v144.4h-229.7v12.5h229.7v142.4H1940.7z"/>
	<path class="st0" d="M236.3,487.9c24.3,0,200.8,0,223.1,0c0,22.3,0,289.1,0,329.7L332.1,946l-1.3,0.7c0,0.7,1.3-0.7-207.4-0.7
		c0,0,0,0.7-1.3-0.7L0.7,817.7c0-619.5,0-271.3,0-329.7c22.3,0,198.8,0,223.1,0v281.2h12.5V487.9z"/>
	<path class="st0" d="M969.3,945.7v-460h459.4V628c-33.5,0-216.6,0-237.6,0l-2,175.2h11.8l2-162.8h225.8v305.2H969.3z"/>
	<path class="st1" d="M485,946.9h223.1V811.7h12.5v135.2h223.1c0-58.4,0-58,0-329.7L822.3,489.5c-1.3-1.3-1.3-0.7-1.3-0.7
		c-201.5,0-207.2-1.2-207.4-0.7c0,0,0,0,0,0.1l-1.3,0.7L485,617.2V946.9z M721.3,671h-13.1v69.6h13.1V671z"/>
</g>
</svg>
