<?xml version="1.0" encoding="UTF-8"?>
<svg id="Layer_1" data-name="Layer 1" xmlns="http://www.w3.org/2000/svg" version="1.1" viewBox="0 0 2400 947">
  <defs>
    <style>
      .cls-1 {
        fill-rule: evenodd;
      }

      .cls-1, .cls-2 {
        fill: #ec0000;
        stroke-width: 0px;
      }
    </style>
  </defs>
  <g id="Vector">
    <path class="cls-2" d="M458.7,160.8c.7,0,0-11.2.7,299.3H0v-143.7h228.4v-12.5H0V0h459.4v149h-230.4v11.8h229.7Z"/>
    <path class="cls-2" d="M722,0h223.1v458.7h-59.1l-1.3.7c0,.7,5.9,0-338,0,0,0,0,.7-1.3-.7h-59.1c0-619.5,0-400.3,0-458.7h223.1v229.7h12.5V0Z"/>
    <path class="cls-2" d="M972.2,0h459.4v361.6h-229.7v97.8h-229.7V0Z"/>
    <path class="cls-2" d="M1454.8,460V0h458.7v149h-229.7v11.8h229.7v144.4h-229.7v12.5h229.7v142.4h-458.7Z"/>
    <path class="cls-2" d="M1940.6,0h459.4v305.2h-229.7v154.2h-229.7V0ZM2182.8,458.7v-139.1h217.2v139.1h-217.2Z"/>
    <path class="cls-2" d="M1690.6,485.6h223.1v458.7h-59.1l-1.3.7c0,.7,5.9,0-338,0,0,0,0,.7-1.3-.7h-59.1c0-619.5,0-400.3,0-458.7h223.1v229.7h12.5v-229.7Z"/>
    <path class="cls-2" d="M1940.7,945.7v-460h458.7v149h-229.7v11.8h229.7v144.4h-229.7v12.5h229.7v142.4h-458.7Z"/>
    <path class="cls-2" d="M236.3,487.9h223.1v329.7l-127.3,128.3-1.3.7c0,.7,1.3-.7-207.4-.7,0,0,0,.7-1.3-.7L.7,817.7c0-619.5,0-271.3,0-329.7h223.1v281.2h12.5v-281.2Z"/>
    <path class="cls-2" d="M969.3,945.7v-460h459.4v142.4h-237.6l-2,175.2h11.8l2-162.8h225.8v305.2h-459.4Z"/>
    <path class="cls-1" d="M485,946.9h223.1v-135.2h12.5v135.2h223.1v-329.7l-121.4-127.7c-1.3-1.3-1.3-.7-1.3-.7-201.5,0-207.2-1.2-207.4-.7,0,0,0,0,0,0l-1.3.7-127.3,128.3v329.7ZM721.3,671h-13.1v69.6h13.1v-69.6Z"/>
  </g>
</svg>